<?xml version="1.0" encoding="utf-8"?>
<!-- Generator: Adobe Illustrator 24.1.2, SVG Export Plug-In . SVG Version: 6.00 Build 0)  -->
<svg version="1.1" id="Layer_1" xmlns="http://www.w3.org/2000/svg" xmlns:xlink="http://www.w3.org/1999/xlink" x="0px" y="0px"
	 viewBox="0 0 1500 500" style="enable-background:new 0 0 1500 500;" xml:space="preserve">
<style type="text/css">
	.st0{fill:#222021;}
	.st1{fill:#FFFFFF;}
	.st2{fill:#231E21;}
	.st3{fill:#EE1D24;}
	.st4{fill:#EE1D24;stroke:#FFFFFF;stroke-width:0.25;stroke-miterlimit:10;}
</style>
<g>
	<g>
		<g>
			<path class="st0" d="M7.05,126.59c-0.16,82.12-0.32,164.25-0.48,246.37c48.4,27.85,96.8,55.69,145.2,83.54
				c0-17.78,0-35.56,0-53.33c-33.54-18.56-67.09-37.13-100.63-55.69c-0.48-64.35-0.96-128.69-1.44-193.04
				c57.34-32.57,114.69-65.13,172.03-97.7c18.37,9.44,36.74,18.88,55.11,28.32c0.16-16.52,0.32-33.04,0.48-49.56
				c-18.05-10.38-36.1-20.77-54.15-31.15C151.12,45.1,79.09,85.84,7.05,126.59z"/>
			<path class="st1" d="M7.06,126.6l-0.4,246.37l-0.04-0.08l145.22,83.5l-0.21,0.12l-0.02-53.33l0.08,0.14L51.04,347.64l-0.1-0.05
				l0-0.11l-1.45-193.04l0-0.12l0.1-0.06l172.06-97.65l0.07-0.04l0.07,0.03l55.1,28.34l-0.18,0.11l0.49-49.56l0.05,0.09L223.12,4.42
				l0.09,0L7.06,126.6z M7.04,126.58L223.15,4.33l0.01,0l0.01,0l54.15,31.15l0.01,0.01l0,0.01l-0.48,49.56l0,0.03l-0.03-0.01
				l-55.11-28.32l0.02,0l-172.03,97.7l0.01-0.02l1.44,193.04l-0.01-0.02l100.63,55.7l0.01,0.01v0.01l0,53.33v0.03l-0.03-0.02
				L6.56,372.98l-0.01,0l0-0.01L7.04,126.58z"/>
		</g>
		<g>
			<path class="st2" d="M173.81,467.36c16.45,9.28,32.9,18.56,49.36,27.85c71.72-40.75,143.44-81.5,215.16-122.24
				c-0.48-81.65-0.96-163.31-1.44-244.96C391.04,101.1,345.2,74.2,299.35,47.3c0,17.15,0,34.3,0,51.45
				c31.63,17.94,63.25,35.87,94.88,53.81c0,65.29,0,130.58,0,195.87c-56.86,32.09-113.73,64.19-170.59,96.28
				c-16.29-9.44-32.59-18.88-48.88-28.32C174.44,433.38,174.13,450.37,173.81,467.36z"/>
			<path class="st1" d="M173.82,467.35l49.36,27.83l-0.03,0l215.12-122.31l-0.05,0.09l-1.51-244.96l0.09,0.16L299.24,47.49
				l0.33-0.19l-0.02,51.45l-0.1-0.17l94.86,53.84l0.08,0.05l0,0.1l-0.06,195.87l0,0.06l-0.05,0.03l-170.62,96.23l-0.02,0.01
				l-0.02-0.01l-48.87-28.33l0.04-0.02L173.82,467.35z M173.8,467.37l0.96-50.98l0-0.02l0.02,0.01l48.88,28.32l-0.01,0l170.59-96.29
				l-0.01,0.02l0-195.87l0.01,0.02l-94.88-53.8l-0.01-0.01v-0.01l0-51.45v-0.04l0.04,0.02l137.53,80.71l0.01,0.01l0,0.01
				l1.43,244.96l0,0.01l-0.01,0.01L223.17,495.22l-0.01,0l-0.01,0L173.8,467.37z"/>
		</g>
		<g>
			<path class="st3" d="M73.65,165.71c0,56.15,0,112.31,0,168.47c13.05,7.43,26.1,14.87,39.16,22.3
				c0.32-37.96,0.64-75.93,0.96-113.89c8.91,16.45,17.83,32.9,26.74,49.35c11.46-21.35,22.92-42.71,34.38-64.06
				c-0.16,62.64-0.32,125.28-0.48,187.92c11.78,6.96,23.56,13.92,35.34,20.88c0.32-116.26,0.64-232.53,0.96-348.79
				c-14.17,8.07-28.33,16.13-42.5,24.2c-9.55,37.33-19.1,74.66-28.65,111.99c-9.39-25.78-18.78-51.57-28.17-77.35
				C98.8,153.06,86.23,159.39,73.65,165.71z"/>
			<g>
				<path class="st1" d="M73.67,165.72l0.06,168.46l-0.03-0.06l39.16,22.29l-0.12,0.07l0.92-113.89l0-0.46l0.22,0.4l26.76,49.34
					l-0.24,0l34.36-64.08l0.3-0.56l0,0.64l-0.42,187.92l-0.11-0.19l35.33,20.88l-0.33,0.19l1.07-348.79l0.16,0.09l-42.51,24.19
					l0.04-0.06L139.6,224.1l-0.04,0.16l-0.06-0.16l-28.15-77.36l0.04,0.01L73.67,165.72z M73.64,165.71l37.73-18.99l0.01-0.01
					l0.01,0.01l28.18,77.35l-0.03,0l28.65-111.99l0-0.01l0.01,0l42.5-24.2l0.03-0.02l0,0.03l-0.95,348.79l0,0.04l-0.04-0.02
					l-35.34-20.88l-0.01-0.01l0-0.01l0.48-187.92l0.04,0.01l-34.38,64.06l-0.02,0.03l-0.02-0.03l-26.74-49.35l0.04-0.01
					l-0.96,113.89l0,0.03l-0.02-0.01l-39.16-22.3l-0.01,0v-0.01L73.64,165.71z"/>
			</g>
		</g>
		<g>
			<path class="st3" d="M234.66,64.29c0,115.95,0,231.9,0,347.85c14.22-7.55,28.43-15.1,42.65-22.66
				c0.32-29.42,0.64-58.84,0.96-88.26c17.41,17.78,34.82,35.56,52.23,53.33c12.94-6.29,25.88-12.59,38.81-18.88
				c-24.92-25.01-49.84-50.03-74.75-75.04c24.6-31.94,49.2-63.87,73.8-95.81c-11.98-6.77-23.96-13.53-35.94-20.3
				c-18.53,18.72-37.06,37.44-55.59,56.17c-0.16-38.23-0.32-76.46-0.48-114.69C262.46,78.76,248.56,71.53,234.66,64.29z"/>
			<g>
				<path class="st1" d="M234.67,64.3l0.14,347.84l-0.21-0.13l42.64-22.67l-0.09,0.14l0.92-88.26l0.01-0.48l0.34,0.34l52.25,53.32
					l-0.26-0.04l38.82-18.86l-0.06,0.33l-74.73-75.07l-0.1-0.1l0.09-0.12l73.83-95.78l0.04,0.18l-35.93-20.31l0.13-0.02
					l-55.61,56.14l-0.13,0.13l0-0.18L276.32,86l0.02,0.03L234.67,64.3z M234.66,64.28l41.7,21.71l0.01,0l0,0.01l0.48,114.69
					l-0.03-0.01l55.58-56.17l0.01-0.01l0.01,0.01l35.94,20.29l0.02,0.01l-0.01,0.02l-73.79,95.81l0-0.03l74.76,75.04l0.02,0.02
					l-0.03,0.01l-38.81,18.88l-0.02,0.01l-0.01-0.01l-52.23-53.33l0.04-0.02l-0.96,88.26l0,0.01l-0.01,0.01l-42.65,22.65l-0.03,0.02
					v-0.03L234.66,64.28z"/>
			</g>
		</g>
		<g>
			<g>
				<g>
					<path class="st4" d="M686.3,267.63c0-44.82,0.96-90.94,1.93-117.07h-0.92c-11.89,43.05-39.44,141.07-64.71,218.72h-37.99
						c-18.91-68.42-47.73-173.67-59.45-219.24h-1.4c1.93,28.45,3.38,81.81,3.38,123.75v95.5H489.5V124.87h60.05
						c24.7,75,48.3,163.43,55.89,196.07h0.48c6.23-27.69,35.93-123.95,60.37-196.07h59.22v244.42H686.3V267.63z"/>
					<path class="st4" d="M829,124.87v244.42h-40.27V124.87H829z"/>
					<path class="st4" d="M892.96,124.87h39.83v118.58c22.42-24.36,73.62-83.45,105.86-118.58h46.24l-92.04,98.28l94.54,146.14
						h-45.45l-76.47-121.06l-32.68,33v88.06h-39.83V124.87z"/>
					<path class="st4" d="M1146.78,294.77l-22.38,74.51h-40.27c0,0,78.48-244.41,78.48-244.42h52.25l80.55,244.42h-42.64
						l-22.64-74.51H1146.78z M1222.19,268.25c-17.72-57.52-29.53-94.97-34.04-115.17h-1.18c-4.39,21.51-17.2,64.1-32.51,115.17
						H1222.19z"/>
				</g>
			</g>
		</g>
		<g>
			<g>
				<path d="M1265.34,102.05c-0.07,8.68-5.67,16.56-13.88,19.44c-8.38,2.95-17.86,0.42-23.59-6.38c-5.6-6.65-6.23-16.42-1.68-23.79
					c4.58-7.42,13.63-11.27,22.16-9.57C1258.04,83.68,1265.27,92.13,1265.34,102.05c0.02,1.93,3.02,1.93,3,0
					c-0.08-10.01-6.52-18.9-15.92-22.28c-9.38-3.37-20.4-0.47-26.77,7.22c-6.36,7.67-7.31,18.76-2.05,27.29
					c5.29,8.57,15.55,12.87,25.38,10.99c11.06-2.11,19.27-11.99,19.36-23.22C1268.36,100.12,1265.36,100.12,1265.34,102.05z"/>
			</g>
		</g>
	</g>
	<g>
		<g>
			<path d="M1234.52,88.7h4.44v26.53h-4.44V88.7z M1236.46,100.48h10.79c0.84,0,1.59-0.17,2.24-0.51c0.65-0.34,1.16-0.82,1.51-1.45
				c0.36-0.63,0.53-1.35,0.53-2.16c0-0.81-0.18-1.53-0.53-2.16s-0.86-1.11-1.5-1.45s-1.4-0.51-2.25-0.51h-10.79V88.7h10.62
				c1.83,0,3.43,0.32,4.82,0.95c1.38,0.63,2.46,1.53,3.22,2.69s1.14,2.5,1.14,4.02c0,1.52-0.38,2.86-1.15,4.02
				c-0.77,1.16-1.85,2.06-3.23,2.69c-1.39,0.63-2.99,0.95-4.8,0.95h-10.62V100.48z M1245.08,103.2l4.42-0.84l8.09,12.87h-5.27
				L1245.08,103.2z"/>
		</g>
	</g>
</g>
<g>
	<g>
		<path d="M820.79,405.19h8.68l5.71,13.3c0.7,1.77,1.32,3.68,2.03,5.53h0.22c0.71-1.84,1.3-3.76,2.01-5.53l5.53-13.3h8.68v29.92
			h-7.24v-10.98c0-2.92,0.64-7.27,1.02-10.17h-0.22l-2.89,7.08l-4.97,11.46h-4.42l-4.98-11.46l-2.81-7.08h-0.22
			c0.38,2.9,1.02,7.25,1.02,10.17v10.98h-7.13V405.19z"/>
		<path d="M861.93,405.19h7.96v29.92h-7.96V405.19z"/>
		<path d="M878.18,405.19h8.15l9.18,14.88l3.48,6.57h0.22c-0.38-3.17-1.02-7.36-1.02-10.88v-10.57h7.58v29.92h-8.15l-9.18-14.92
			l-3.48-6.54h-0.22c0.38,3.3,1.02,7.31,1.02,10.84v10.62h-7.58V405.19z"/>
		<path d="M914.08,405.19h7.96v11.53h12.15v-11.53h7.96v29.92h-7.96v-12.49h-12.15v12.49h-7.96V405.19z"/>
		<path d="M961.26,405.19h7.96v12.23h0.2l10.49-12.23h8.74L978,417.13l12.6,17.98h-8.72l-8.55-12.64l-4.11,4.62v8.02h-7.96V405.19z"
			/>
		<path d="M994.41,405.19h7.96v11.53h12.15v-11.53h7.96v29.92h-7.96v-12.49h-12.15v12.49h-7.96V405.19z"/>
		<path d="M1029.13,420.02c0-9.78,6.49-15.38,15.98-15.38s15.98,5.64,15.98,15.38c0,9.78-6.49,15.64-15.98,15.64
			S1029.13,429.8,1029.13,420.02z M1052.94,420.02c0-6-3.03-9.54-7.83-9.54c-4.8,0-7.83,3.54-7.83,9.54s3.03,9.8,7.83,9.8
			C1049.91,429.83,1052.94,426.02,1052.94,420.02z"/>
		<path d="M1074.27,405.19h9.52l11.05,29.92h-8.42l-4.6-15.16c-0.98-2.99-1.92-6.53-2.86-9.65h-0.22c-0.85,3.16-1.79,6.66-2.77,9.65
			l-4.62,15.16h-8.13L1074.27,405.19z M1070.5,422.73h16.93v5.26h-16.93V422.73z"/>
		<path d="M1107.79,420.33c0-9.93,7.72-15.69,16.61-15.69c4.55,0,8.21,1.82,10.58,3.88l-4.19,4.34c-1.77-1.4-3.66-2.38-6.21-2.38
			c-4.83,0-8.63,3.62-8.63,9.62c0,6.15,3.37,9.73,8.51,9.73c2.89,0,5.16-1.21,6.88-2.8l4.19,4.25c-2.92,2.89-6.81,4.39-11.36,4.39
			C1115.24,435.67,1107.79,430.41,1107.79,420.33z"/>
		<path d="M1139.21,420.02c0-9.78,6.49-15.38,15.98-15.38s15.98,5.64,15.98,15.38c0,9.78-6.49,15.64-15.98,15.64
			S1139.21,429.8,1139.21,420.02z M1163.01,420.02c0-6-3.03-9.54-7.83-9.54c-4.8,0-7.83,3.54-7.83,9.54s3.03,9.8,7.83,9.8
			C1159.99,429.83,1163.01,426.02,1163.01,420.02z"/>
		<path d="M1176.96,431.42c0-2.4,2.04-4.26,4.79-4.26s4.79,1.85,4.79,4.26c0,2.39-2.04,4.24-4.79,4.24
			S1176.96,433.81,1176.96,431.42z"/>
		<path d="M1193.15,431.42c0-2.4,2.04-4.26,4.79-4.26s4.79,1.85,4.79,4.26c0,2.39-2.04,4.24-4.79,4.24
			S1193.15,433.81,1193.15,431.42z"/>
		<path d="M1210.18,405.19h7.96v24.25h13.89v5.67h-21.84V405.19z"/>
		<path d="M1245.03,410.86h-9.68v-5.67h27.32v5.67h-9.68v24.25h-7.96V410.86z"/>
		<path d="M1268.16,405.19h9.95c10.75,0,17.67,4.55,17.67,14.83s-6.92,15.09-17.23,15.09h-10.39V405.19z M1277.63,429.67
			c5.97,0,10-2.49,10-9.64c0-7.16-4.03-9.39-10-9.39h-1.51v19.03H1277.63z"/>
	</g>
</g>
</svg>
